<?xml version="1.0" encoding="utf-8"?>
<svg width="381px" height="400px" viewBox="0 0 381 400" version="1.1" xmlns:xlink="http://www.w3.org/1999/xlink" xmlns="http://www.w3.org/2000/svg">
  <desc>Created with Lunacy</desc>
  <defs>
    <path d="M0 0L380.881 0L380.881 400L0 400L0 0Z" id="path_1" />
    <clipPath id="mask_1">
      <use xlink:href="#path_1" />
    </clipPath>
  </defs>
  <g id="jo">
    <path d="M0 0L380.881 0L380.881 400L0 400L0 0Z" id="Background" fill="none" fill-rule="evenodd" stroke="none" />
    <g clip-path="url(#mask_1)">
      <g id="logo" transform="translate(0.001159668 -0.0015792847)">
        <path d="M371.394 144.015L344.177 80.651C318.428 21.1839 249.487 -6.32566 189.872 19.0778L121.726 48.3481C79.9671 19.8536 28.6808 -9.2552 7.77061 2.79373C-30.1025 24.6253 82.7732 267.983 82.7732 267.983C108.523 327.45 177.462 354.961 237.078 329.56L309.818 298.314C369.281 272.565 396.791 203.63 371.394 144.015L371.394 144.015ZM244.698 179.635C239.719 209.507 213.051 214.589 193.619 214.165C181.978 213.891 172.689 204.366 172.708 192.722L172.708 168.685C172.741 157.533 181.291 148.255 192.403 147.313C215.525 145.224 250.087 147.293 244.698 179.635L244.698 179.635Z" transform="translate(0 60.94712)" id="Path_5" fill="#2F455C" fill-rule="evenodd" stroke="none" />
        <path d="M197.164 86.9497L122.999 86.9497C95.8782 44.2758 60.2422 -2.70107 36.277 0.121228C-7.14048 5.22594 0.521412 273.38 0.521412 273.38C0.713946 338.186 53.2007 390.668 118.002 390.856L197.164 390.856C261.967 390.668 314.453 338.182 314.643 273.38L314.643 204.426C314.451 139.619 261.962 87.1353 197.16 86.9497L197.164 86.9497ZM205.941 240.582C200.962 270.454 174.294 275.536 154.862 275.113C143.221 274.838 133.932 265.313 133.951 253.669L133.951 229.633C133.984 218.48 142.534 209.202 153.646 208.26C176.771 206.172 211.333 208.241 205.944 240.582L205.941 240.582Z" transform="translate(38.753418 0)" id="Path_6" fill="#00BCBC" fill-rule="evenodd" stroke="none" />
      </g>
    </g>
  </g>
</svg>